# xmcd
#
# Track frame offsets: 
#        150
#        19490
#        30182
#        45527
#        65930
#        82850
#        98567
#        119650
#        133152
#        144152
#        163535
#        179540
#        193990
#        208112
#        224265
#        240522
#
# Disc length: 3425 seconds
#
# Revision: 0
# Processed by: cddbd v1.4PL0 Copyright (c) Steve Scherf et al.
# Submitted via: ExactAudioCopy v0.90b3
#
DISCID=e60d5f10
DTITLE=Kris Kristofferson - The Very Best Of
DYEAR=1994
DGENRE=Country
TTITLE0=Me And Bobby McGee
TTITLE1=Help Me Make It Through The Night
TTITLE2=For The Good Times
TTITLE3=Sunday Morning Comin' Down
TTITLE4=Loving Her Was Easier (Than Anything I'll Ever Do Again)
TTITLE5=Why Me
TTITLE6=To Beat The Devil
TTITLE7=Josie
TTITLE8=Jesus Was A Capricorn (Ode To John Prine)
TTITLE9=The Silver-Tongued Devil
TTITLE10=Who's To Bless And Who's To Blame
TTITLE11=The Pilgrim, Chapter 33
TTITLE12=Stranger
TTITLE13=Casey's Last Ride
TTITLE14=I Got A Life Of My Own
TTITLE15=You Show Me Yours (And I'll Show You Mine)
EXTD=
EXTT0=
EXTT1=
EXTT2=
EXTT3=
EXTT4=
EXTT5=
EXTT6=
EXTT7=
EXTT8=
EXTT9=
EXTT10=
EXTT11=
EXTT12=
EXTT13=
EXTT14=
EXTT15=
PLAYORDER=
